<svg width="193" height="86" viewBox="0 0 193 86" fill="none" xmlns="http://www.w3.org/2000/svg">
<path d="M153.515 15.522C153.515 10.8177 157.328 7.00403 162.033 7.00403H184.482C189.186 7.00403 193 10.8177 193 15.522V18.988C193 23.6924 189.186 27.506 184.482 27.506H153.515V15.522Z" fill="#32B768"/>
<path d="M161.235 22.8969H158.849L162.485 12.3656H165.354L168.985 22.8969H166.599L163.961 14.7722H163.879L161.235 22.8969ZM161.086 18.7574H166.722V20.4955H161.086V18.7574ZM170.211 25.8588V14.9984H172.371V16.3251H172.469C172.565 16.1126 172.703 15.8966 172.885 15.6772C173.07 15.4544 173.31 15.2693 173.605 15.1218C173.903 14.971 174.274 14.8956 174.716 14.8956C175.292 14.8956 175.823 15.0464 176.31 15.3481C176.797 15.6464 177.186 16.0972 177.477 16.7005C177.769 17.3004 177.914 18.0529 177.914 18.958C177.914 19.839 177.772 20.5829 177.487 21.1897C177.206 21.793 176.822 22.2507 176.336 22.5627C175.852 22.8712 175.311 23.0255 174.711 23.0255C174.286 23.0255 173.924 22.9552 173.626 22.8146C173.331 22.6741 173.089 22.4975 172.901 22.285C172.712 22.069 172.568 21.8513 172.469 21.6319H172.402V25.8588H170.211ZM172.355 18.9477C172.355 19.4173 172.421 19.827 172.551 20.1767C172.681 20.5263 172.87 20.7989 173.117 20.9943C173.363 21.1863 173.663 21.2822 174.016 21.2822C174.373 21.2822 174.675 21.1845 174.921 20.9891C175.168 20.7903 175.355 20.5161 175.482 20.1664C175.612 19.8133 175.677 19.407 175.677 18.9477C175.677 18.4917 175.614 18.0906 175.487 17.7444C175.36 17.3981 175.173 17.1273 174.927 16.9319C174.68 16.7365 174.376 16.6388 174.016 16.6388C173.66 16.6388 173.358 16.7331 173.111 16.9216C172.868 17.1102 172.681 17.3776 172.551 17.7238C172.421 18.0701 172.355 18.478 172.355 18.9477ZM179.375 25.8588V14.9984H181.534V16.3251H181.632C181.728 16.1126 181.867 15.8966 182.049 15.6772C182.234 15.4544 182.474 15.2693 182.769 15.1218C183.067 14.971 183.437 14.8956 183.879 14.8956C184.455 14.8956 184.987 15.0464 185.473 15.3481C185.96 15.6464 186.349 16.0972 186.641 16.7005C186.932 17.3004 187.078 18.0529 187.078 18.958C187.078 19.839 186.935 20.5829 186.651 21.1897C186.37 21.793 185.986 22.2507 185.499 22.5627C185.016 22.8712 184.474 23.0255 183.874 23.0255C183.449 23.0255 183.087 22.9552 182.789 22.8146C182.494 22.6741 182.253 22.4975 182.064 22.285C181.875 22.069 181.732 21.8513 181.632 21.6319H181.565V25.8588H179.375ZM181.519 18.9477C181.519 19.4173 181.584 19.827 181.714 20.1767C181.845 20.5263 182.033 20.7989 182.28 20.9943C182.527 21.1863 182.827 21.2822 183.18 21.2822C183.536 21.2822 183.838 21.1845 184.085 20.9891C184.332 20.7903 184.519 20.5161 184.645 20.1664C184.776 19.8133 184.841 19.407 184.841 18.9477C184.841 18.4917 184.777 18.0906 184.651 17.7444C184.524 17.3981 184.337 17.1273 184.09 16.9319C183.843 16.7365 183.54 16.6388 183.18 16.6388C182.823 16.6388 182.522 16.7331 182.275 16.9216C182.031 17.1102 181.845 17.3776 181.714 17.7238C181.584 18.0701 181.519 18.478 181.519 18.9477Z" fill="white"/>
<path d="M36.7262 85C29.4716 85 23.2534 83.3807 18.0716 80.142C12.8898 76.8386 8.97104 72.4665 6.31535 67.0255C3.72444 61.5199 2.42898 55.5284 2.42898 49.0511C2.42898 40.1124 3.46535 32.534 5.53808 26.3158C7.61081 20.0976 11.6591 16.9885 17.683 16.9885C22.4114 16.9885 25.812 18.3812 27.8847 21.1664C29.9574 23.9516 30.9938 27.3846 30.9938 31.4653C30.9938 34.1857 30.7347 37.3596 30.2165 40.9869C29.6983 44.4846 29.4392 47.4318 29.4392 49.8284C29.4392 53.0022 29.9898 55.7227 31.091 57.9897C32.1921 60.2568 34.0705 61.3903 36.7262 61.3903C39.4466 61.3903 41.3251 60.2568 42.3614 57.9897C43.4626 55.7227 44.0131 53.0022 44.0131 49.8284C44.0131 47.4318 43.754 44.4846 43.2359 40.9869C42.7177 37.3596 42.4586 34.1857 42.4586 31.4653C42.4586 27.3846 43.4949 23.9516 45.5677 21.1664C47.6404 18.3812 51.041 16.9885 55.7694 16.9885C61.7933 16.9885 65.8416 20.0976 67.9143 26.3158C69.987 32.534 71.0234 40.1124 71.0234 49.0511C71.0234 55.5284 69.6955 61.5199 67.0399 67.0255C64.449 72.4665 60.5626 76.8386 55.3808 80.142C50.1989 83.3807 43.9807 85 36.7262 85ZM91.4587 85C86.4064 85 82.261 83.8665 79.0223 81.5994C75.7837 79.2676 74.1644 75.9318 74.1644 71.592C74.1644 67.8352 75.8161 64.8557 79.1195 62.6534C82.4229 60.4511 86.536 59.35 91.4587 59.35C93.2723 59.35 94.9564 59.5119 96.511 59.8358C98.1303 60.0949 99.2314 60.4187 99.8144 60.8074C99.8144 59.188 99.1343 57.8602 97.7741 56.8238C96.4138 55.7227 94.3411 55.1721 91.5559 55.1721C90.3252 55.1721 89.3212 55.2693 88.5439 55.4636C87.7667 55.6579 86.9246 55.9494 86.0178 56.338C85.111 56.7267 84.2689 57.0181 83.4916 57.2125C82.7791 57.4068 81.8076 57.5039 80.5769 57.5039C78.5041 57.5039 76.8848 56.9858 75.7189 55.9494C74.553 54.8483 73.97 53.1965 73.97 50.9943C73.97 48.4681 74.8769 46.3306 76.6905 44.5818C78.5689 42.8329 80.9007 41.5374 83.686 40.6954C86.4712 39.7886 89.2564 39.3352 92.0417 39.3352C97.5473 39.3352 102.146 40.3715 105.838 42.4443C109.595 44.4522 112.348 47.1403 114.097 50.5085C115.91 53.8767 116.817 57.6011 116.817 61.6818C116.817 63.8841 116.623 65.9244 116.234 67.8028C115.91 69.6812 115.457 71.1386 114.874 72.175C115.781 72.9523 116.461 73.8591 116.914 74.8954C117.433 75.9318 117.692 77.0006 117.692 78.1017C117.692 79.9801 117.044 81.5994 115.749 82.9597C114.518 84.3199 112.866 85 110.793 85C109.239 85 107.976 84.7733 107.004 84.3199C106.033 83.8665 104.996 83.154 103.895 82.1824C102.276 83.154 100.495 83.8665 98.5513 84.3199C96.6729 84.7733 94.3087 85 91.4587 85ZM93.4019 75.1869C94.7621 75.1869 95.8309 74.8954 96.6081 74.3125C97.4502 73.7295 97.8712 73.017 97.8712 72.175C97.8712 71.3329 97.4502 70.6204 96.6081 70.0375C95.8309 69.4545 94.7621 69.163 93.4019 69.163C92.0417 69.163 90.9405 69.4545 90.0985 70.0375C89.3212 70.6204 88.9326 71.3329 88.9326 72.175C88.9326 73.017 89.3212 73.7295 90.0985 74.3125C90.9405 74.8954 92.0417 75.1869 93.4019 75.1869Z" fill="#32B768"/>
<circle cx="133.369" cy="17.1971" r="12.1449" fill="#32B768"/>
</svg>
