<svg width="71" height="71" viewBox="0 0 71 71" fill="none" xmlns="http://www.w3.org/2000/svg">
<rect x="1" y="1" width="69" height="69" rx="20" stroke="#ECECEC"/>
<g clip-path="url(#clip0_766_4926)">
<path d="M31.125 36.675L34.6625 33.1375L25.8875 24.375C23.9375 26.325 23.9375 29.4875 25.8875 31.45L31.125 36.675ZM39.6 34.4125C41.5125 35.3 44.2 34.675 46.1875 32.6875C48.575 30.3 49.0375 26.875 47.2 25.0375C45.375 23.2125 41.95 23.6625 39.55 26.05C37.5625 28.0375 36.9375 30.725 37.825 32.6375L25.625 44.8375L27.3875 46.6L36 38.0125L44.6 46.6125L46.3626 44.85L37.7625 36.25L39.6 34.4125Z" fill="#071731"/>
</g>
<defs>
<clipPath id="clip0_766_4926">
<rect width="30" height="30" fill="white" transform="translate(21 20)"/>
</clipPath>
</defs>
</svg>
