<svg width="71" height="71" viewBox="0 0 71 71" fill="none" xmlns="http://www.w3.org/2000/svg">
<rect x="1" y="1" width="69" height="69" rx="20" stroke="#ECECEC"/>
<path fill-rule="evenodd" clip-rule="evenodd" d="M35.7533 37.4655L36.2768 37.4633C38.3534 37.4453 40.2062 37.3201 41.3804 37.1042C41.4015 37.1042 42.566 36.8687 42.9537 36.7187C43.5139 36.4832 43.9895 36.0574 44.2908 35.5235C44.5058 35.0961 44.6149 34.6477 44.6149 34.1783C44.5978 33.8093 44.4122 33.2008 44.2565 32.7665L44.1182 32.4056C43.1687 30.0152 40.066 25.4457 38.1686 23.6956L38.036 23.5666L37.4145 22.9907C36.9389 22.6278 36.3575 22.4359 35.7321 22.4359C35.1718 22.4359 34.6116 22.6069 34.1588 22.9488C34.0121 23.0512 33.8239 23.2161 33.6649 23.3628L33.0782 23.9233C31.124 25.8521 28.3829 30.0281 27.4747 32.1927C27.4551 32.1927 26.8932 33.5379 26.8721 34.1783V34.2638C26.8721 35.2461 27.4323 36.1638 28.3379 36.6332C28.5854 36.7615 29.0704 36.8844 29.4963 36.978L30.3004 37.1461C31.5936 37.3381 33.5774 37.4655 35.7533 37.4655ZM33.4985 46.8275C33.4985 48.055 34.5034 49.0502 35.7428 49.0502C36.9823 49.0502 37.9872 48.055 37.9872 46.8275L37.5035 41.3579C37.5035 40.395 36.7168 39.6143 35.7428 39.6143C34.7705 39.6143 33.9822 40.395 33.9822 41.3579L33.4985 46.8275Z" fill="#252525"/>
</svg>
