<svg width="20" height="12" viewBox="0 0 20 12" fill="none" xmlns="http://www.w3.org/2000/svg">
<path fill-rule="evenodd" clip-rule="evenodd" d="M18.3334 10C18.8489 10 19.2668 10.4477 19.2668 11C19.2668 11.5523 18.8489 12 18.3334 12H1.53343C1.01797 12 0.600098 11.5523 0.600098 11C0.600098 10.4477 1.01797 10 1.53343 10H18.3334ZM18.3334 5C18.8489 5 19.2668 5.44772 19.2668 6C19.2668 6.55228 18.8489 7 18.3334 7H1.53343C1.01797 7 0.600098 6.55228 0.600098 6C0.600098 5.44772 1.01797 5 1.53343 5H18.3334ZM18.3334 0C18.8489 0 19.2668 0.447715 19.2668 1C19.2668 1.55228 18.8489 2 18.3334 2H1.53343C1.01797 2 0.600098 1.55228 0.600098 1C0.600098 0.447715 1.01797 0 1.53343 0H18.3334Z" fill="#282828"/>
</svg>
