<svg width="71" height="71" viewBox="0 0 71 71" fill="none" xmlns="http://www.w3.org/2000/svg">
<rect x="1" y="1" width="69" height="69" rx="20" stroke="#ECECEC"/>
<path fill-rule="evenodd" clip-rule="evenodd" d="M38.3185 29.1436C38.3185 33.1093 35.0734 36.2872 31.024 36.2872C26.9761 36.2872 23.7295 33.1093 23.7295 29.1436C23.7295 25.178 26.9761 22 31.024 22C35.0734 22 38.3185 25.178 38.3185 29.1436ZM20 44.3761C20 40.7051 25.0783 39.7866 31.024 39.7866C37.002 39.7866 42.048 40.7367 42.048 44.4106C42.048 48.0816 36.9697 49 31.024 49C25.046 49 20 48.0499 20 44.3761ZM41.2601 29.2731C41.2601 31.2926 40.6408 33.1769 39.5546 34.7422C39.4416 34.9032 39.5414 35.1202 39.7381 35.1547C40.0111 35.1993 40.2914 35.2266 40.5776 35.2323C43.425 35.3056 45.9803 33.5104 46.6863 30.8067C47.7327 26.7951 44.6623 23.1931 40.7508 23.1931C40.3267 23.1931 39.9201 23.2362 39.5238 23.3153C39.4695 23.3268 39.4108 23.3527 39.3815 23.3987C39.3433 23.4576 39.3712 23.5338 39.4093 23.5841C40.585 25.1982 41.2601 27.1631 41.2601 29.2731ZM45.9759 38.0533C47.8898 38.4198 49.1476 39.1658 49.6687 40.2539C50.1104 41.145 50.1104 42.1799 49.6687 43.0711C48.8717 44.7556 46.3003 45.2975 45.3008 45.437C45.0938 45.4657 44.928 45.2932 44.95 45.0891C45.4607 40.4206 41.3996 38.2071 40.3487 37.6983C40.3047 37.6738 40.2944 37.6393 40.2988 37.6163C40.3017 37.602 40.3208 37.579 40.3546 37.5747C42.628 37.5315 45.0733 37.8377 45.9759 38.0533Z" fill="white"/>
</svg>
